# AST/ASF file generated using VICON BodyLanguage
# -----------------------------------------------
:version 1.10
:name VICON
:units
  mass 1.0
  length 0.45
  angle deg
:documentation
   .ast/.asf automatically generated from VICON data using
   VICON BodyBuilder and BodyLanguage model FoxedUp or BRILLIANT.MOD
:root
   order TX TY TZ RX RY RZ
   axis XYZ
   position 0 0 0  
   orientation 0 0 0 
:bonedata
  begin
     id 1 
     name lhipjoint
     direction 0.561145 -0.797705 0.220866 
     length 2.46425 
     axis 0 0 0  XYZ
  end
  begin
     id 2 
     name lfemur
     direction 0.34202 -0.939693 0  
     length 7.95556  
     axis 0 0 20  XYZ
    dof rx ry rz
    limits (-160.0 20.0)
           (-70.0 70.0)
           (-60.0 70.0)
  end
  begin
     id 3 
     name ltibia
     direction 0.34202 -0.939693 0   
     length 7.9832   
     axis 0 0 20   XYZ
    dof rx
    limits (-10.0 170.0)
  end
  begin
     id 4 
     name lfoot
     direction 0.0723927 -0.198897 0.977343   
     length 2.23085   
     axis -90 7.62852e-016 20   XYZ
    dof rx rz
    limits (-45.0 90.0)
           (-70.0 20.0)
  end
  begin
     id 5 
     name ltoes
     direction 1.53826e-011 -4.21988e-011 1   
     length 1.12127   
     axis -90 7.62852e-016 20   XYZ
    dof rx
    limits (-90.0 20.0)
  end
  begin
     id 6 
     name rhipjoint
     direction -0.610499 -0.763299 0.21134   
     length 2.57533  
     axis 0 0 0  XYZ 
  end
  begin
     id 7 
     name rfemur
     direction -0.34202 -0.939693 0   
     length 8.65257   
     axis 0 0 -20   XYZ
    dof rx ry rz
    limits (-160.0 20.0)
           (-70.0 70.0)
           (-70.0 60.0)
  end
  begin
     id 8 
     name rtibia
     direction -0.342021 -0.939692 0   
     length 7.37807   
     axis 0 0 -20   XYZ
    dof rx
    limits (-10.0 170.0)
 end
 begin
     id 9 
     name rfoot
     direction -0.0239304 -0.0543852 0.998233   
     length 1.87018  
     axis -90 -7.62852e-016 -20   XYZ
    dof rx rz
    limits (-45.0 90.0)
           (-20.0 70.0)
  end
  begin
     id 10 
     name rtoes
     direction -1.53584e-011 -4.2242e-011 1   
     length 0.951568   
     axis -90 -7.62852e-016 -20   XYZ
    dof rx
    limits (-90.0 20.0)
  end
  begin
     id 11 
     name lowerback
     direction 0.00322089 0.999033 0.0438587   
     length 2.07568   
     axis 0 0 0   XYZ
    dof rx ry rz
    limits (-20.0 45.0)
           (-30.0 30.0)
           (-30.0 30.0)
  end
  begin
     id 12 
     name upperback
     direction -0.00321932 0.999732 -0.0229403   
     length 2.06253   
     axis 0 0 0   XYZ
    dof rx ry rz
    limits (-20.0 45.0)
           (-30.0 30.0)
           (-30.0 30.0)
  end
  begin
     id 13 
     name thorax
     direction -0.00537537 0.998955 -0.0453918   
     length 2.06975   
     axis 0 0 0   XYZ
    dof rx ry rz
    limits (-20.0 45.0)
           (-30.0 30.0)
           (-30.0 30.0)
  end
  begin
     id 14 
     name lowerneck
     direction -0.00013604 0.994111 0.108363   
     length 1.50836   
     axis 0 0 0   XYZ
    dof rx ry rz
    limits (-20.0 45.0)
           (-30.0 30.0)
           (-30.0 30.0)
  end
  begin
     id 15 
     name upperneck
     direction 0.0397262 0.983859 -0.174482   
     length 1.53037   
     axis 0 0 0   XYZ
    dof rx ry rz
    limits (-20.0 45.0)
           (-30.0 30.0)
           (-30.0 30.0)
  end
  begin
     id 16
     name head
     direction 0.0109991 0.997082 -0.0755378  
     length 1.56928  
     axis 0 0 0   XYZ
    dof rx ry rz
    limits (-20.0 45.0)
           (-30.0 30.0)
           (-30.0 30.0)
  end
  begin
     id 17 
     name lclavicle
     direction 0.964749 0.254 -0.068874  
     length 3.26503  
     axis 0 0 0   XYZ
    dof ry rz
    limits (-20.0 10.0)
           (0.0 20.0)
  end
  begin
     id 18 
     name lhumerus
     direction 1 -4.48941e-011 -2.05079e-027   
     length 5.68236   
     axis 180 -30 -90   XYZ
    dof rx ry rz
    limits (-60.0 90.0)
           (-90.0 90.0)
           (-90.0 90.0)
  end
  begin
     id 19
     name lradius
     direction 1 -4.48956e-011 6.2882e-027   
     length 3.17112   
     axis 180 -30 -90   XYZ
    dof rx
    limits (-10.0 170.0)
  end
  begin
     id 20
     name lwrist
     direction 1 -4.49014e-011 1.73219e-026   
     length 1.58556   
     axis -1.04724e-014 90 90   XYZ
    dof ry
    limits (-180.0 0.0)
 end
  begin
     id 21 
     name lhand
     direction 1 -4.49312e-011 3.46438e-026   
     length 0.632691   
     axis -2.21057e-014 90 90   XYZ
    dof rx rz
    limits (-90.0 90.0)
           (-45.0 45.0)
  end
  begin
     id 22 
     name lfingers
     direction 1 -4.48894e-011 6.92876e-026   
     length 0.510091   
     axis -4.42114e-014 90 90   XYZ
    dof rx
    limits (0.0 90.0)
  end
  begin
     id 23
     name lthumb
     direction 0.707107 -6.34705e-011 0.707107   
     length 0.732392   
     axis -90 45 2.85299e-015   XYZ
    dof rx rz
    limits (-45.0 45.0)
           (-45.0 45.0)
  end
  begin
     id 24 
     name rclavicle
     direction -0.954374 0.280496 -0.102435   
     length 3.25419  
     axis 0 0 0   XYZ 
    dof ry rz
    limits (-10.0 20.0)
           (-20.0 0.0)
  end
  begin
     id 25 
     name rhumerus
     direction -1 -4.48994e-011 -1.07204e-017  
     length 5.8712   
     axis 180 30 90   XYZ
    dof rx ry rz
    limits (-90.0 60.0)
           (-90.0 90.0)
           (-90.0 90.0)
  end
  begin
     id 26 
     name rradius
     direction -1 -4.48972e-011 5.89292e-027   
     length 3.37589   
     axis 180 30 90   XYZ
    dof rx
    limits (-10.0 170.0)
  end
  begin
     id 27 
     name rwrist
     direction -1 -4.48942e-011 1.73219e-026   
     length 1.68794   
     axis -1.04724e-014 -90 -90   XYZ
    dof ry
    limits (-180.0 0.0)
  end
  begin
     id 28
     name rhand
     direction -1 -4.48514e-011 3.46438e-026   
     length 0.603257   
     axis -2.21057e-014 -90 -90   XYZ
    dof rx rz
    limits (-90.0 90.0)
           (-45.0 45.0)
  end
  begin
     id 29
     name rfingers
     direction -1 -4.50028e-011 6.92876e-026   
     length 0.486362   
     axis -4.42114e-014 -90 -90   XYZ
    dof rx
    limits (0.0 90.0)
  end
  begin
     id 30
     name rthumb
     direction -0.707107 -6.34926e-011 0.707107   
     length 0.698321   
     axis -90 -45 -2.85299e-015   XYZ
    dof rx rz
    limits (-45.0 45.0)
           (-45.0 45.0)
  end
:hierarchy
  begin
    root lhipjoint rhipjoint lowerback
    lhipjoint lfemur
    lfemur ltibia
    ltibia lfoot
    lfoot ltoes
    rhipjoint rfemur
    rfemur rtibia
    rtibia rfoot
    rfoot rtoes
    lowerback upperback
    upperback thorax
    thorax lowerneck lclavicle rclavicle
    lowerneck upperneck
    upperneck head
    lclavicle lhumerus
    lhumerus lradius
    lradius lwrist
    lwrist lhand lthumb
    lhand lfingers
    rclavicle rhumerus
    rhumerus rradius
    rradius rwrist
    rwrist rhand rthumb
    rhand rfingers
  end

#!OML:ASF I:\Segmentation\Patient Classification 1\Patient 1\Session 1\Patient1.ASF
:FULLY-SPECIFIED
:DEGREES
2098
root 20.5799 15.7248 -0.516787 -553.956 -91.2102 179.663
lowerback 13.3147 0.306052 -3.30926
upperback 13.7298 -0.863175 0.14212
thorax 7.25401 -1.15835 2.00277
lowerneck -0.0183589 -1.67163 2.88933
upperneck -2.32398 -2.19728 2.02121
head -0.710175 -1.15084 0.155941
rclavicle 5.66536e-015 -8.54774e-015
rhumerus 40.5814 -10.0116 -26.581
rradius 114.106
rwrist -29.8886
rhand -14.4452 33.2304
rfingers 7.12502
rthumb 11.6998 3.57709
lclavicle 5.66536e-015 -8.54774e-015
lhumerus -13.3112 -10.3897 84.8581
lradius 53.8165
lwrist 21.2649
lhand -16.4379 40.4984
lfingers 7.12502
lthumb 9.77766 70.2514
rfemur -34.6285 -6.60949 17.5122
rtibia 60.3654
rfoot -4.78224 3.1079
rtoes 47.3929
lfemur -36.4674 11.1184 -17.6076
ltibia 63.5194
lfoot -13.9841 4.88589
ltoes -0.697747
2099
root 20.5793 15.7242 -0.515331 -552.811 -91.1829 178.561
lowerback 13.2381 0.336739 -3.34813
upperback 13.7505 -0.823559 0.160857
thorax 7.31824 -1.14433 2.04008
lowerneck -0.242556 -1.72536 2.87529
upperneck -2.27053 -2.27931 2.08111
head -0.655901 -1.19042 0.174382
rclavicle -2.77305e-014 1.59028e-015
rhumerus 39.3875 -9.76213 -27.1442
rradius 114.319
rwrist -30.161
rhand -14.2655 32.9626
rfingers 7.12502
rthumb 11.8731 3.31922
lclavicle -2.77305e-014 1.59028e-015
lhumerus -13.2038 -10.193 84.7875
lradius 54.2384
lwrist 20.8816
lhand -15.8679 40.5195
lfingers 7.12502
lthumb 10.3275 70.2459
rfemur -34.6802 -6.59392 17.5456
rtibia 60.3616
rfoot -4.79279 3.12727
rtoes 47.3884
lfemur -36.526 11.0984 -17.5863
ltibia 63.5439
lfoot -14.0035 4.90926
ltoes -0.657833
2100
root 20.5785 15.7234 -0.513578 -552.491 -91.1564 178.276
lowerback 13.1645 0.369958 -3.39874
upperback 13.7783 -0.782172 0.174578
thorax 7.38902 -1.13082 2.07847
lowerneck -0.527403 -1.77953 2.812
upperneck -2.18415 -2.36488 2.16673
head -0.580754 -1.23053 0.207492
rclavicle 1.2921e-015 9.93923e-016
rhumerus 38.1759 -9.48136 -27.7517
rradius 114.491
rwrist -30.3542
rhand -14.1527 32.737
rfingers 7.12502
rthumb 11.9819 3.0999
lclavicle 1.2921e-015 9.93923e-016
lhumerus -13.0876 -10.0181 84.6996
lradius 54.7074
lwrist 20.5392
lhand -15.3413 40.5018
lfingers 7.12502
lthumb 10.8356 70.2022
rfemur -34.7242 -6.58498 17.5587
rtibia 60.3596
rfoot -4.79053 3.14605
rtoes 47.3721
lfemur -36.572 11.0669 -17.5845
ltibia 63.5639
lfoot -14.0268 4.94593
ltoes -0.663941
2101
root 20.5775 15.7227 -0.511531 -552.355 -91.1344 178.17
lowerback 13.1167 0.397001 -3.45102
upperback 13.7967 -0.749598 0.185606
thorax 7.43543 -1.1211 2.11619
lowerneck -0.860701 -1.83744 2.70578
upperneck -2.05326 -2.45776 2.26965
head -0.48363 -1.27276 0.251523
rclavicle 7.7526e-015 4.17448e-015
rhumerus 36.9424 -9.15099 -28.4033
rradius 114.625
rwrist -30.4173
rhand -14.1231 32.563
rfingers 7.12502
rthumb 12.0104 2.92761
lclavicle 7.7526e-015 4.17448e-015
lhumerus -12.998 -9.84937 84.5929
lradius 55.2333
lwrist 20.2328
lhand -14.8621 40.4495
lfingers 7.12502
lthumb 11.2978 70.1252
rfemur -34.7592 -6.58828 17.5652
rtibia 60.3574
rfoot -4.78008 3.15238
rtoes 47.3402
lfemur -36.6087 11.0203 -17.5884
ltibia 63.5821
lfoot -14.0599 4.98925
ltoes -0.659777
2102
root 20.5763 15.722 -0.509224 -551.72 -91.1164 177.565
lowerback 13.0955 0.412526 -3.49608
upperback 13.7972 -0.731804 0.201052
thorax 7.44788 -1.11705 2.15638
lowerneck -1.20237 -1.89276 2.56531
upperneck -1.90585 -2.54693 2.3746
head -0.380112 -1.31227 0.300924
rclavicle -6.4605e-015 -1.78906e-015
rhumerus 35.6807 -8.77815 -29.1032
rradius 114.747
rwrist -30.3724
rhand -14.1085 32.3621
rfingers 7.12502
rthumb 12.0245 2.72757
lclavicle -6.4605e-015 -1.78906e-015
lhumerus -12.9438 -9.6517 84.4778
lradius 55.805
lwrist 19.9427
lhand -14.4062 40.3228
lfingers 7.12502
lthumb 11.7375 69.9739
rfemur -34.7919 -6.60158 17.5799
rtibia 60.3533
rfoot -4.76612 3.13779
rtoes 47.3007
lfemur -36.6462 10.9613 -17.5834
ltibia 63.6017
lfoot -14.1059 5.02948
ltoes -0.563026
2103
root 20.5749 15.7217 -0.506699 -550.213 -91.0997 176.094
lowerback 13.0876 0.419267 -3.52264
upperback 13.7801 -0.723558 0.222794
thorax 7.43312 -1.11508 2.19418
lowerneck -1.5082 -1.93496 2.40723
upperneck -1.78409 -2.61557 2.47326
head -0.290442 -1.34192 0.351461
rclavicle -2.48481e-015 9.93923e-016
rhumerus 34.3843 -8.38512 -29.8569
rradius 114.866
rwrist -30.2753
rhand -14.0147 32.0808
rfingers 7.12502
rthumb 12.1149 2.45152
lclavicle -2.48481e-015 9.93923e-016
lhumerus -12.9165 -9.41856 84.3611
lradius 56.4076
lwrist 19.6529
lhand -13.9531 40.086
lfingers 7.12502
lthumb 12.1743 69.7118
rfemur -34.8283 -6.61783 17.6111
rtibia 60.3452
rfoot -4.75265 3.10583
rtoes 47.2629
lfemur -36.6909 10.8995 -17.5614
ltibia 63.6231
lfoot -14.16 5.05711
ltoes -0.347607
2104
root 20.5735 15.7222 -0.50395 -548.29 -91.0798 174.212
lowerback 13.0797 0.426322 -3.52579
upperback 13.7512 -0.711623 0.240764
thorax 7.40407 -1.10791 2.21492
lowerneck -1.76832 -1.96182 2.25437
upperneck -1.69582 -2.66061 2.56867
head -0.218556 -1.36061 0.400907
rclavicle 4.96962e-016 -1.03368e-014
rhumerus 33.0667 -7.99924 -30.6656
rradius 114.942
rwrist -30.1505
rhand -13.8388 31.7659
rfingers 7.12502
rthumb 12.2846 2.14673
lclavicle 4.96962e-016 -1.03368e-014
lhumerus -12.8988 -9.18071 84.2331
lradius 57.0318
lwrist 19.3606
lhand -13.4833 39.7276
lfingers 7.12502
lthumb 12.6273 69.3259
rfemur -34.8694 -6.62873 17.6494
rtibia 60.3328
rfoot -4.74017 3.06553
rtoes 47.2298
lfemur -36.7397 10.8474 -17.5309
ltibia 63.6435
lfoot -14.2138 5.07058
ltoes -0.0511574
2105
root 20.5723 15.7236 -0.501046 -546.93 -91.0515 172.893
lowerback 13.0632 0.442948 -3.51424
upperback 13.7201 -0.68422 0.241792
thorax 7.37523 -1.09039 2.20836
lowerneck -1.99492 -1.98049 2.12868
upperneck -1.63076 -2.69295 2.66171
head -0.15942 -1.37375 0.445955
rclavicle 9.64106e-015 1.39149e-015
rhumerus 31.7578 -7.64475 -31.5308
rradius 114.919
rwrist -29.9869
rhand -13.6511 31.5095
rfingers 7.12502
rthumb 12.4655 1.90128
lclavicle 9.64106e-015 1.39149e-015
lhumerus -12.8719 -8.97984 84.077
lradius 57.6813
lwrist 19.0695
lhand -12.9886 39.2635
lfingers 7.12502
lthumb 13.1042 68.8318
rfemur -34.9108 -6.6283 17.6747
rtibia 60.3181
rfoot -4.72371 3.02513
rtoes 47.2068
lfemur -36.7827 10.8184 -17.5118
ltibia 63.6588
lfoot -14.2584 5.07479
ltoes 0.261312
2106
root 20.5711 15.7254 -0.498161 -546.844 -91.0136 172.841
lowerback 13.0384 0.473173 -3.50065
upperback 13.6929 -0.637354 0.219802
thorax 7.35354 -1.06183 2.17471
lowerneck -2.21319 -2.00317 2.04642
upperneck -1.57075 -2.73089 2.74249
head -0.103737 -1.39004 0.480504
rclavicle 3.27995e-015 1.07344e-014
rhumerus 30.4649 -7.33433 -32.4492
rradius 114.786
rwrist -29.7768
rhand -13.5343 31.3904
rfingers 7.12502
rthumb 12.5781 1.78904
lclavicle 3.27995e-015 1.07344e-014
lhumerus -12.828 -8.84974 83.8822
lradius 58.3706
lwrist 18.7833
lhand -12.4822 38.7387
lfingers 7.12502
lthumb 13.5923 68.275
rfemur -34.9499 -6.6191 17.6743
rtibia 60.3054
rfoot -4.69854 2.98679
rtoes 47.1991
lfemur -36.8152 10.8174 -17.5184
ltibia 63.6675
lfoot -14.289 5.0779
ltoes 0.516395
2107
root 20.5699 15.727 -0.495349 -548.277 -90.971 174.306
lowerback 13.0153 0.513177 -3.49169
upperback 13.6653 -0.576918 0.176209
thorax 7.32937 -1.02556 2.11983
lowerneck -2.45385 -2.04054 2.00257
upperneck -1.48327 -2.79062 2.80368
head -0.0367171 -1.41666 0.502369
rclavicle -4.07509e-015 -1.05356e-014
rhumerus 29.1623 -7.06072 -33.413
rradius 114.585
rwrist -29.5435
rhand -13.5462 31.3731
rfingers 7.12502
rthumb 12.5666 1.77101
lclavicle -4.07509e-015 -1.05356e-014
lhumerus -12.7765 -8.79891 83.6481
lradius 59.1173
lwrist 18.5074
lhand -11.9932 38.2237
lfingers 7.12502
lthumb 14.0636 67.7279
rfemur -34.9905 -6.61064 17.6472
rtibia 60.2996
rfoot -4.66327 2.94815
rtoes 47.2053
lfemur -36.8431 10.835 -17.5556
ltibia 63.6724
lfoot -14.3094 5.09151
ltoes 0.672263
2108
root 20.5687 15.7279 -0.492539 -550.935 -90.9311 176.998
lowerback 13.0086 0.553107 -3.48509
upperback 13.6258 -0.515979 0.117829
thorax 7.28257 -0.987461 2.05097
lowerneck -2.71842 -2.09205 1.96791
upperneck -1.35249 -2.87111 2.85117
head 0.0472518 -1.45253 0.517849
rclavicle -5.46658e-015 -1.13307e-014
rhumerus 27.8202 -6.80248 -34.4249
rradius 114.377
rwrist -29.3458
rhand -13.6626 31.3214
rfingers 7.12502
rthumb 12.4544 1.71251
lclavicle -5.46658e-015 -1.13307e-014
lhumerus -12.7383 -8.80352 83.3844
lradius 59.9366
lwrist 18.2516
lhand -11.5598 37.7982
lfingers 7.12502
lthumb 14.4812 67.2729
rfemur -35.038 -6.61032 17.602
rtibia 60.3025
rfoot -4.61913 2.91122
rtoes 47.2228
lfemur -36.876 10.8551 -17.6167
ltibia 63.6773
lfoot -14.326 5.12294
ltoes 0.727151
2109
root 20.5673 15.728 -0.489716 -553.82 -90.8993 179.924
lowerback 13.021 0.584685 -3.46972
upperback 13.5683 -0.4648 0.0555817
thorax 7.20551 -0.95191 1.97432
lowerneck -2.98996 -2.1495 1.91038
upperneck -1.1855 -2.95966 2.89959
head 0.14415 -1.49138 0.536856
rclavicle 2.5842e-015 4.17448e-015
rhumerus 26.4291 -6.55183 -35.494
rradius 114.183
rwrist -29.247
rhand -13.7873 31.1886
rfingers 7.12502
rthumb 12.3342 1.57237
lclavicle 2.5842e-015 4.17448e-015
lhumerus -12.7228 -8.8272 83.1065
lradius 60.834
lwrist 18.0306
lhand -11.2002 37.5144
lfingers 7.12502
lthumb 14.8277 66.9639
rfemur -35.0952 -6.61816 17.5568
rtibia 60.3111
rfoot -4.57249 2.88433
rtoes 47.2467
lfemur -36.9207 10.863 -17.6824
ltibia 63.6851
lfoot -14.3449 5.17032
ltoes 0.685853
2110
root 20.5659 15.7278 -0.487002 -555.826 -90.8747 181.979
lowerback 13.0384 0.606574 -3.43417
upperback 13.5009 -0.42464 -0.000473161
thorax 7.11516 -0.919806 1.89393
lowerneck -3.26659 -2.2084 1.81077
upperneck -0.993165 -3.04916 2.96454
head 0.251194 -1.5298 0.567424
rclavicle 4.96962e-015 -1.27222e-014
rhumerus 25.0131 -6.31755 -36.6202
rradius 113.963
rwrist -29.2373
rhand -13.8744 31.0441
rfingers 7.12502
rthumb 12.2503 1.42284
lclavicle 4.96962e-015 -1.27222e-014
lhumerus -12.7144 -8.85194 82.8249
lradius 61.8091
lwrist 17.865
lhand -10.9005 37.3866
lfingers 7.12502
lthumb 15.1163 66.8146
rfemur -35.1597 -6.62852 17.5289
rtibia 60.3193
rfoot -4.53327 2.8736
rtoes 47.2609
lfemur -36.9766 10.8522 -17.732
ltibia 63.6951
lfoot -14.3736 5.22522
ltoes 0.567467
2111
root 20.5646 15.728 -0.484619 -556.529 -90.8525 182.73
lowerback 13.0458 0.623172 -3.37628
upperback 13.4409 -0.390425 -0.0450386
thorax 7.03907 -0.890112 1.81338
lowerneck -3.55434 -2.26821 1.67013
upperneck -0.795429 -3.13844 3.04908
head 0.363598 -1.56762 0.610473
rclavicle 3.97569e-015 -4.37326e-015
rhumerus 23.6148 -6.10526 -37.7923
rradius 113.661
rwrist -29.2031
rhand -13.9999 30.9601
rfingers 7.12502
rthumb 12.1292 1.33174
lclavicle 3.97569e-015 -4.37326e-015
lhumerus -12.6849 -8.88308 82.5405
lradius 62.8599
lwrist 17.7718
lhand -10.6521 37.3912
lfingers 7.12502
lthumb 15.3556 66.801
rfemur -35.2207 -6.63469 17.5237
rtibia 60.3215
rfoot -4.50615 2.87548
rtoes 47.2506
lfemur -37.0323 10.8308 -17.7553
ltibia 63.7047
lfoot -14.4126 5.27428
ltoes 0.422337
2112
root 20.5636 15.7287 -0.48276 -556.198 -90.8297 182.44
lowerback 13.0382 0.640755 -3.30452
upperback 13.4008 -0.355433 -0.0764683
thorax 6.99381 -0.861231 1.73841
lowerneck -3.85512 -2.3287 1.50876
upperneck -0.613684 -3.22711 3.13775
head 0.47462 -1.60522 0.65817
rclavicle -1.00386e-014 -2.78299e-015
rhumerus 22.2599 -5.91527 -38.9955
rradius 113.261
rwrist -29.0191
rhand -14.2671 30.9435
rfingers 7.12502
rthumb 11.8715 1.29999
lclavicle -1.00386e-014 -2.78299e-015
lhumerus -12.6126 -8.92366 82.2544
lradius 63.9774
lwrist 17.7406
lhand -10.4906 37.4832
lfingers 7.12502
lthumb 15.5112 66.881
rfemur -35.268 -6.63353 17.5357
rtibia 60.3163
rfoot -4.487 2.88005
rtoes 47.2239
lfemur -37.0763 10.812 -17.7551
ltibia 63.7112
lfoot -14.4536 5.30774
ltoes 0.307474
